<svg xmlns="http://www.w3.org/2000/svg" viewBox="0 0 499.52 836.67"><defs><style>@keyframes hueShift{0%{filter:hue-rotate(0deg)}8.33%{filter:hue-rotate(30deg)}16.66%{filter:hue-rotate(60deg)}25%{filter:hue-rotate(90deg)}33.33%{filter:hue-rotate(120deg)}41.66%{filter:hue-rotate(150deg)}50%{filter:hue-rotate(180deg)}58.33%{filter:hue-rotate(210deg)}66.66%{filter:hue-rotate(240deg)}75%{filter:hue-rotate(270deg)}83.33%{filter:hue-rotate(300deg)}91.66%{filter:hue-rotate(330deg)}to{filter:hue-rotate(360deg)}}.cls-1{fill:#f2bd90}.cls-2{fill:#fac99e}.cls-4{fill:#38a236;will-change:filter;animation:hueShift 24s linear infinite}.cls-5{fill:none}.cls-6{fill:#fff}.cls-7{fill:#fdfcfb}.cls-8{fill:#f7fbfe}</style></defs><g id="Capa_3" data-name="Capa 3"><path d="M84.51 725.24a51.13 51.13 0 0 0 25.65 13.16c6.43 1.26 90.64 14.08 94.68 16.81 1-.11 43.73 3.12 57.13 1.31 4-.55 12.81-7 13.74-8.47.51-3.19 4.61-9.07 2.79-12.57-1.4-.59-107.17-145.12-107.17-145.12-2.84 1.4-40-38.05-40-39.58V440.07c-.62-.77-15.64-22.86-17.27-22ZM120 461.55l.11.15-.11.15Zm217.28 131.89a8 8 0 0 1 1.83.18 5.7 5.7 0 0 1-1.83-.18" class="cls-1"/><path d="M275.71 748.05c-2.34-2.07-55.3 8.09-55.9 8-.68-1-33.82-6.64-41.74-8.78-3 .52-38.4-7.29-51-8.22-13.94-1-27-3.51-38.55-11.4 13.51 4.56 27.27 8.37 42 6.11 13.16-2 24.88-7 34.71-16.12 1.52-1.41 6.12-8.64 6.71-10.2 4.27-11.37 3.29-22.94 1.27-34.54-2-11.4-5.6-22.42-8.35-33.64-.87-5.91-10.65-30.51-15.3-36.28-5-6.17-10.93-11.47-15.5-18-4.81-5.65-10.17-23.09-10.33-24.34-.79-6.09-1.94-35.9-.6-44.63a132.1 132.1 0 0 0-1.93-51c-.34-1.06-6.81-36.94-6.63-38.63.2-1.95-.45-4 .86-6.44 3.09 3.93 11.87 20 13.84 22 .54.29 2.09-.77 2.09-1.62v-40.48a75 75 0 0 0-14.3 3c-2.53-.87-3.47-2-2.7-4.73.32-1.92 4.53-30.67 16.92-48 .23-.95.34-125.29.35-144.3 0-2-7-6.82-7-6.82-.54.82-37.07 61.3-38.88 63.18-.15.23-44.6 105.23-46.39 111.1-.65 1.68-32.22 83.28-33.91 88.64-.51 1.28-3.61 32-4.07 33.6-.28 3.57-.15 28.87-.16 38 .07 8.11-.12 16.23.12 24.34.34 1.65 7.56 66.15 8.83 68.3.31 4.89 20.1 66 21.71 67.47 1.89 7.86 1.78 15.9 2.77 23.9 2 15.93-21.41 110.47-23 114.61a18.2 18.2 0 0 0-.95 4.62h242.85c.25-1.15.48-2.31.72-3.47.01-.08 10.93-65.44 21.44-85.23M75.78 290s-.06 0-.1-.05Zm-.33-.12h.1v.05Zm42.05-59.55v-.17l.11.08-.12.09ZM38.56 733.38" class="cls-2"/><path d="M175.1 593.16a8.2 8.2 0 0 0-2.9.18c-1.85.74-3.93.85-1.93 4.26 2.47 4.22 3.51 9.29 5.17 14 1.06 3.65 9.21 32.68 10.21 35.95 1.86 6.06 6.1 35.4 7.22 43.77 1.44 10.66-1.53 34.28-2 35.65-1.43 4.63.43 7.81 4.7 9.77 3.71 2.69 81.27-.45 83-.86 1.13-.75 36.34-34.18 36.34-34.19 1.77-1.41 23.41-30.7 27.56-35.58 1.1-1.3 54.08-71.05 56.88-75.44Zm167.32 72.89.06.06Z" class="cls-2"/><path d="M283.79 594.8a11.06 11.06 0 0 1 3.92 7.2c.58 7.15 2.24 14.19 3.28 21.19 1.82 12.28.91 24.41 1 36.57.15 13.59-2.39 26.78-9.86 38.59-1.44 2.28-2.5 4.81-4.23 7.21 6.28-37.5.93-74.2-6.75-110.76ZM356 632.59c-4.3-7.86-10.26-14.61-15-22.22-2.52-4-6.5-7.6-9.7-11.49a5.33 5.33 0 0 0-4.17-1.72l2-1.51h10.94c4.09 1.52 6.48 5 9.29 8 5.78 6.16 9.49 13.84 14.72 20.42 1.09 1.38 7.81.77 5.64 4.1-.59 1.4-6.78 10-7.8 10.25h-.16c-2.76 1.07-4.62-4.42-5.76-5.83" class="cls-1"/><path d="M429.45 169c-.09-11.95.12-23.9 0-35.85 0-2.86.33-5.85-1.27-8.51-3-.18-2.46-2.45-2.46-4.33 0-25.61-.06-51.22 0-76.83a50.2 50.2 0 0 0-3.24-18.85 3.33 3.33 0 0 1-.91-2.43c-1.45-2.19-2.9-4.37-4.34-6.56-3.56-5.22-13.86-11.02-15.23-12.17a8.3 8.3 0 0 0-1.1-.65C396.05.48 393.23.59 390.47.34c-2.09-.09-4.19-.26-6.28-.26q-105 0-210.1-.08c-8.5 0-14.58 1.33-21.81 5.48-.27.15-2.06 1.25-2.33 1.41a43 43 0 0 0-7.1 5.73 45 45 0 0 0-3.71 4.09 80 80 0 0 0-4.91 7.67c-.41 1-.89 1.89-1.28 2.86-1.24 3-1.46 9.17-1.17 12.37-.07 1.71.14 3.44.13 5.14q-.18 35.23-.23 70.48v3.37c0 1.52.61 3.85-.13 4.42-3.35 2.59-2.11 6-2.15 9.13-.18 16.72-.2 33.44-.28 50.16a5.7 5.7 0 0 0-.88 1.55 13.2 13.2 0 0 0 .87 5.25 3.3 3.3 0 0 0 0 .89c-.08 4.05-.23 7.48-.1 11.24.7 2 1.14 3.46 2.88 4.72l-.26 1 .07-.08a4 4 0 0 0-.23 1c-.22 31.16-.09 296.68-.09 346.84-.25 4 .77 7.73 1.91 11.51 2.32 7.71 7.85 13.09 13 18.82a5 5 0 0 0 1.14.74 45.3 45.3 0 0 0 25.57 7.85c54.95-.23 109.91-.11 164.86-.12 16.65 0 58.35-2.62 60.31-2.74 17.5-1.1 27.93-15.91 27.91-30 0 0 .24-314.73.08-322v-12.24a6 6 0 0 0 1.26-.26c1-.12 1.24-.48 1.31-.91.18-1.9.35-3.64.36-5.45v-37.49c0-1.38.42-3.86-.95-3.93-3.33-.62-2.19-2.77-2.37-4.45a6.7 6.7 0 0 1 1.12-.32 4.68 4.68 0 0 0 2.56-4.73m-16.18 383.33c-.29 4.45-1.07 13.23-7.35 19a25.27 25.27 0 0 1-12.89 6 123 123 0 0 1-18.09 1.19c-67.87.27-131.15.4-199 .32a8 8 0 0 1-1-.07c-9.15-1.26-17.07-4.8-22.88-12.32s-7.83-16.39-7.83-26q.14-228.37 0-456.76c0-1.75.12-3.53 0-5.28 0-2.89-.16-8.13-.13-10.16.09-7.83-.09-15.66.06-23.49.38-19.39 15-33.79 34.31-33.93h13.42c13 0 13 0 14.73 12.9.87 6.39 5.32 10.53 11.65 10.27 27.77-1.14 55.55-.18 83.33-.49 11.14-.12 22.29.21 33.43.19 8.5 0 13.15-4.25 14-13.06.09-.83.1-1.68.24-2.5.82-5 3.33-7.22 8.46-7.29 7.26-.09 14.53.05 21.81-.08 3.55-.37 7.19.76 9.4 1.18 3 .62 10.8 5.47 12.12 7.39a79 79 0 0 1 6.5 6.77S414 40.49 414 48.84c-.16 74.56 1.61 466.86-.73 503.49" style="fill:#130505"/><path d="M499.11 314.35c-2-15.45-25.52-30.88-25.52-30.88-.07-.21-4.67-2.84-6.24-3.7-.72-.47-6.77-3.57-7.3-4.1-8.93-3.39-18-6.25-27.63-6.56-2.27-.08-2.61-.28-6.48-.28 0 .56-.42 32.81-.42 33.91 0 9.76 1.24 9.3 0 14.71-.61 2.67-12.92 19.89-13.18 20.43-.86 2.54-2.12 4.94-2.56 7.62-.58 4.08-1.9 6.79.58 9.6.5.57 23.35 32.9 22.48 35.56.87 2.71 3.17 1.92 5.09 2.08 3.28-.36 40.09-29.42 43.92-35.64.33-.3 6.5-7.86 6.87-8.45 0 0 12.03-21.5 10.39-34.3m-53-.37-.07-.13a.4.4 0 0 1 .09.13Zm-.25.07c-.22.09-.14-.12 0-.2Zm41.39-13.19H487a1.4 1.4 0 0 1 .21-.27Zm-7-11.76h.06Z" class="cls-2"/><path d="M417.42 561.15c1.58 1.4 8.41-.18 8.63-.41h.08c3.21-.84 6-2.75 8.79-4.5l21.88-10.92c6.22-4.37 13.1-7.82 18.43-13.41 5.17-2.91 9-6.93 11-12.64a38.55 38.55 0 0 0 0-17.65v-.08c-.17-3.8-1.9-7.22-2.65-10.89-1.92-4.05-4.86-7.71-4.94-12.5h-.1.09c6.69-6.47 12.52-13.52 15.27-22.65 2.58-4.92 3.31-10.33 3.92-15.72 1.9-16.73-2.32-32.1-10.79-46.46-1.84-.84-6.14-7-7.55-8.39l-4.2-3.42c-2.77-2.87-11.82-6.19-12.6-6.71s-36.52 18.36-37 18.18c0 0-.51 33.53.29 34.12a4.16 4.16 0 0 1 2.19 3.45c-.14.65-.25 1.37-.38 2.08a21.3 21.3 0 0 1-1.81 3.25c-.3.24-12.84 15.23-13.17 15.43s-4 5.88-5.36 7.86c-3.77 5.29-12.12 20.17-12.14 20.41-1.6 2.9-1.38 6.07-.64 9.32L410 519.77c-2.85 2.05-7.05 3.88-9 7.23-.78 1.29-1.15 1.65-1.15 2.51.04 0 17.41 31.37 17.57 31.64m52.81-178.8a1 1 0 0 1 0-.15l.19.14h-.15Zm-35.41 130.54a9 9 0 0 1 1-.36 7 7 0 0 1-1.2.46Zm21.54 27.72-.45.35a1.7 1.7 0 0 1 .45-.35m22.26-44.9" class="cls-2"/><path d="M477.72 477.23s-8.23 5.61-10.55 6.68-16.8 10.53-17.5 11.11-1.9 1.75-1.9 1.74 3.69-1.27 4-1.53 9.87-6.49 11-7.09 15.25-9.68 15.79-10.07 2.6-2.47 2.6-2.47ZM429.59 301a25 25 0 0 0-3.7-2.62c0 1.83-.25 15.45-.37 19.1l7.37-11.86c.54-1.44-2.15-3.62-3.3-4.62" class="cls-1"/><path d="M481.56 164.21a19 19 0 0 0-1.69-2.05 41 41 0 0 1-3-3c-3.46-3.46-5.61-4.37-8.18-6-2.24-1.45-7.93-.46-11.68 1.26-1.26 1-5.06 3.7-6.05 5.09-1.25 1.2-3.14 2.78-5 4.66l1.66-.14c2.52-.22 10.42.89 12.08.81a10.9 10.9 0 0 1 6.36 1.59 32 32 0 0 1 6.8 5.94 6.5 6.5 0 0 1 .11 1.23 26.2 26.2 0 0 1 .62 8l-.61.84c.69.71-.51 4 .41 3.7l.12-.1a27 27 0 0 0 3.65-3.75c2.35-1.79 3.57-4.53 5.59-6.59 1.45-4.29 1.58-8.24-1.19-11.49" class="cls-4"/><path d="M474.35 181.56c.37-3 .27-7.48-1.52-9.24a32 32 0 0 0-6.8-5.94c-1.86-1.18-7.09-4.15-11.06-3.67-2.51.22-8.48 1.36-9 1.41-5.89 1.69-11.44 4.43-17.52 5.53.34 2.27-2.14 2.22-2.92 3.57-1.42 2.52-1.35 4.61 1.67 5.85 2 .93 1.49 2.81 1.5 4.4v35.22a11.54 11.54 0 0 1-1.21 5.67 8.5 8.5 0 0 0-.77 1.87l-.89-.07v25.21c0 .81 0 1.61-.05 2.41.58-.23 1.16-.45 1.74-.69l2.44-1.78c3.74-5.45 8.87-9.85 11.83-15.87l.68-.28a86 86 0 0 1 9.24-12.46c5-6.37 8.93-13.41 13.43-20.09.95-2.28 1.94-3.83 2.64-5.9l3.55-6.68a26 26 0 0 0 2-4.07s.95-3.75 1.02-4.4m-3.29 3.4" class="cls-2"/><path d="M453 382.35c-.87 2.75.39 7.45-1 9.63-7.14 11.19-22.52 38.07-23.9 38.14-1.15-2.25-2.26-2.89-2.26-3.32 0-3.48-.24-31.47.65-34.82 1.51.02 24.85-6.15 26.51-9.63" class="cls-1"/><path d="M444.18 503.36a4.6 4.6 0 0 1 1 .22 8.6 8.6 0 0 0 2.43.2 1.94 1.94 0 0 0 1.74-2.9 8.4 8.4 0 0 0-1.74-2.41l-.13-.12c-.89.8-1.81 1.6-2.74 2.38a2.67 2.67 0 0 1-.56 2.63M442.73 503.7c.29-.42 1.47-.94 1.07-2.18-2.69 2.25-5.33 4.3-7.3 5.7.68-.2 1.45-.46 2.37-.8a17.3 17.3 0 0 0 3.86-2.72" class="cls-5"/><path d="M442.89 500.13c-2.14-2.3-9.16-6.66-10.87-7.14s-8.16-1.25-8.71-.49.33 7.27 1.52 9.1 2.47 4.67 5.2 5.43c2.25.63 3.21 1.15 6.47.19 2-1.4 4.61-3.45 7.3-5.7a3.9 3.9 0 0 0-.91-1.39" class="cls-4"/><path d="M446.85 497.34a2.6 2.6 0 0 1-1.62-.74 53.7 53.7 0 0 0-19.4-8.08 6.48 6.48 0 0 0-4.66.32 2.27 2.27 0 0 0-1.45 2.38 4.23 4.23 0 0 0 2.14 2.35c.48.1.58-.21.59-.54.06-1.78 1.38-2 2.72-2.26a10.5 10.5 0 0 1 5.25.44c4.34 1.54 8.63 3.21 12 6.48a16 16 0 0 1 1.37 1.52 4.6 4.6 0 0 1 .91 1.52c.93-.78 1.85-1.58 2.74-2.38-.25-.29-.61-.54-.59-1.01M402.55 499.38c-1-1.51-4.38-2.35-6.56-1.64-1.69.56-2.1 1.73-1.15 3.24a7.16 7.16 0 0 0 6.18 2.6 2.62 2.62 0 0 0 1.53-4.2" class="cls-4"/><path d="M461 476.71c-.4-4.38-4.64-12.49-10.47-16.32a3 3 0 0 0-.11.24 47 47 0 0 0-3.47 12.17 12.4 12.4 0 0 0 .09 4 3.89 3.89 0 0 0 6.94 1.73 3.2 3.2 0 0 0 .68-1.27 2.49 2.49 0 0 0-.85-2.65c-.07-.06-.13-.13-.2-.18s-.19-.23-.08-.38.26-.11.4-.05a3.47 3.47 0 0 1 1.62 1.5 3.53 3.53 0 0 1 .08 3.09 5.5 5.5 0 0 1-6.24 3.34 5.78 5.78 0 0 1-4.4-4.1 13 13 0 0 1-.35-5.3 33.3 33.3 0 0 1 1.59-7.11v-.13a36.2 36.2 0 0 1-5.91 5.37 13.1 13.1 0 0 1-4.14 2 6 6 0 0 1-6.3-2.11 5.54 5.54 0 0 1 .83-7.39 3.32 3.32 0 0 1 4.05-.13c.14.1.29.21.18.41s-.25.15-.41.09l-.51-.15a2.54 2.54 0 0 0-3 1.62 4.07 4.07 0 0 0 .23 4 4 4 0 0 0 4.28 1.55 11.8 11.8 0 0 0 3.53-1.82 36 36 0 0 0 5.49-5.06 57 57 0 0 0 3.71-4.54 10.8 10.8 0 0 0-3-.82c-8.77-1.28-23.36 5.83-23.92 6-2.68.7-4.55 2.64-6.62 4.28-6.91 5.45-20.25 19.06-20.6 19.72s-1.77 3.42-2 4c-.49 2.09-1.15 4.36-.75 6.5a5 5 0 0 1 3.52-3.71 9.7 9.7 0 0 1 3.66-.29c1 .11 1.32-.28 1.67-1.12 2.19-5.32 4.49-10.6 6.67-15.93.49-1.19 1.12-1.55 2.3-1.17a22 22 0 0 1 2.4.73c.54.26 1.56 0 1.44 1.21s-.27 1.92-1.94 2c.87.68 1.65.91 1.33 1.89s-.54 1.18-1.53.77c-2.68-1.1-2.66-1-3.82 1.55-1.42 3.16-2.9 6.29-4.38 9.43-.53 1.11-.72 1.85.81 2.48a5.07 5.07 0 0 1 2.91 5.81 5.17 5.17 0 0 1-5.15 4.22 11.66 11.66 0 0 1-6.46-1.87c3.44 5 8.94 12.59 13.46 14.94 2.29 1.19 7.84-.44 10.28-1.3 1-.36 14.4-9.25 14.72-9.36a4.2 4.2 0 0 0 1.58-.77c-5.06.48-9.72-2.57-11.44-8.26a14 14 0 0 1-.66-4.15 1.16 1.16 0 0 0-.88-1.32 4.7 4.7 0 0 1-1.19-.64c-1.24-.81-2.24-1.79-1.9-3.45a3.36 3.36 0 0 1 3.14-2.95c2.09-.06 3.39-1.15 4.89-2.33 6.23-4.89 16.91-1.27 19 6.33a20.3 20.3 0 0 1 .74 4 1.82 1.82 0 0 0 .42 1.25 13 13 0 0 1 1.17.9 63 63 0 0 0 5.79-5.86c1.22-.93 7.67-8.29 7.08-15.13" class="cls-4"/><path d="M441.14 486.26c-2.2-2.14-5.58-2.41-8.72-2.43s-6.23 2.7-7.47 3.74c.27-.11 7.9 1.81 9.07 2.08s11.98 6.24 11.98 6.24c-1.59-7.73-2.66-7.5-4.86-9.63" class="cls-4"/><path d="M439 468.77a11.8 11.8 0 0 1-3.53 1.82 4 4 0 0 1-4.28-1.55 4.07 4.07 0 0 1-.23-4 2.54 2.54 0 0 1 3-1.62l.51.15c.16.06.31.1.41-.09s0-.31-.18-.41a3.32 3.32 0 0 0-4.05.13 5.54 5.54 0 0 0-.83 7.39 6 6 0 0 0 6.3 2.11 13.1 13.1 0 0 0 4.14-2 36.2 36.2 0 0 0 5.91-5.37v.13a33.3 33.3 0 0 0-1.59 7.11 13 13 0 0 0 .35 5.3 5.78 5.78 0 0 0 4.4 4.1 5.5 5.5 0 0 0 6.24-3.34 3.53 3.53 0 0 0-.08-3.09 3.47 3.47 0 0 0-1.62-1.5c-.14-.06-.29-.11-.4.05s-.06.27.08.38.13.12.2.18a2.49 2.49 0 0 1 .85 2.65 3.2 3.2 0 0 1-.68 1.27 3.89 3.89 0 0 1-6.94-1.73 12.4 12.4 0 0 1-.09-4 47 47 0 0 1 3.47-12.17 3 3 0 0 1 .11-.24 14 14 0 0 0-2.26-1.22 57 57 0 0 1-3.71 4.54 36 36 0 0 1-5.5 5.02M406.42 502.48a5.07 5.07 0 0 0-2.91-5.81c-1.53-.63-1.34-1.37-.81-2.48 1.48-3.14 3-6.27 4.38-9.43 1.16-2.58 1.14-2.65 3.82-1.55 1 .41 1.24.07 1.53-.77s-.46-1.21-1.33-1.89c1.67-.06 1.84-.95 1.94-2s-.9-.95-1.44-1.21a22 22 0 0 0-2.4-.73c-1.18-.38-1.81 0-2.3 1.17-2.18 5.33-4.48 10.61-6.67 15.93-.35.84-.68 1.23-1.67 1.12a9.7 9.7 0 0 0-3.66.29 5 5 0 0 0-3.52 3.71 5.9 5.9 0 0 0 .85 2.19c.58.83 1.48 2.18 2.58 3.79a11.66 11.66 0 0 0 6.46 1.87 5.17 5.17 0 0 0 5.15-4.2M394.84 501c-.95-1.51-.54-2.68 1.15-3.24 2.18-.71 5.57.13 6.56 1.64a2.62 2.62 0 0 1-1.53 4.2 7.16 7.16 0 0 1-6.18-2.6M447 496.84a1.82 1.82 0 0 1-.42-1.25 20.3 20.3 0 0 0-.74-4c-2.11-7.6-12.79-11.22-19-6.33-1.5 1.18-2.8 2.27-4.89 2.33a3.36 3.36 0 0 0-3.14 2.95c-.34 1.66.66 2.64 1.9 3.45a4.7 4.7 0 0 0 1.19.64 1.16 1.16 0 0 1 .88 1.32 14 14 0 0 0 .66 4.15c1.72 5.69 6.38 8.74 11.44 8.26.47-.3 1-.68 1.65-1.12-3.26 1-4.22.44-6.47-.19-2.73-.76-4-3.6-5.2-5.43s-2.07-8.34-1.52-9.1 7 0 8.71.49 8.73 4.84 10.87 7.14a3.9 3.9 0 0 1 .91 1.39l.94-.79a4.6 4.6 0 0 0-.91-1.52 16 16 0 0 0-1.37-1.52c-3.41-3.27-7.7-4.94-12-6.48a10.5 10.5 0 0 0-5.25-.44c-1.34.22-2.66.48-2.72 2.26 0 .33-.11.64-.59.54a4.23 4.23 0 0 1-2.14-2.35 2.27 2.27 0 0 1 1.45-2.38 6.48 6.48 0 0 1 4.66-.32 53.7 53.7 0 0 1 19.4 8.08 2.6 2.6 0 0 0 1.62.74c0 .47.34.72.63 1l.68-.61a13 13 0 0 0-1.17-.9Zm-13-7.19c-1.17-.27-8.8-2.19-9.07-2.08 1.24-1 4.33-3.76 7.47-3.74s6.52.29 8.72 2.43 3.27 1.9 4.81 9.63c.07 0-10.75-5.96-11.93-6.24" class="cls-6"/><path d="M435.09 512.91a5.9 5.9 0 0 1 2.32.25 27 27 0 0 1 3.64 1.73 9.3 9.3 0 0 0-3.31-1.87 5.2 5.2 0 0 0-2.65-.11" class="cls-5"/><path d="M439.26 512.93a8.16 8.16 0 0 0-7.07.4c.64-.14 1.27-.26 1.87-.33a7.3 7.3 0 0 1 7.57 2.22l1.08.64a7.5 7.5 0 0 0-3.45-2.93" class="cls-5"/><path d="M427.05 531.53a3 3 0 0 0 .86-1.33 2.9 2.9 0 0 0-.86 1.33" class="cls-4"/><path d="M446.68 518.39c-.07 0-1.59-1.07-3.55-2.27a8.12 8.12 0 0 1-7.91 12.12 2 2 0 0 0-2.3 1.13 12 12 0 0 1-.62 1 .76.76 0 0 0-.15.6 1.11 1.11 0 0 1-1.15 1.13c-.25 0-.32.09-.42.24s-.25.37-.37.56l-.39.6a4.4 4.4 0 0 0-1.62-1.24 7.8 7.8 0 0 1 1.47 1.39.39.39 0 0 1-.48.06 8 8 0 0 1-2.7-1.73.48.48 0 0 1-.07-.74c.21-.27.38-.58.58-.86a.76.76 0 0 0 .08-1c-.29-.52.22-1 .55-1.2a2.8 2.8 0 0 0 .76-.81c.17-.23.29-.49.47-.71a2 2 0 0 0 .09-2.56 8 8 0 0 1 1.39-9.8 7.3 7.3 0 0 1 1-.83 65 65 0 0 0-9 3.11s-21.73 12.52-25.57 14.56a15 15 0 0 0-1.36.87c.47.22.89 0 1.36-.58a1.84 1.84 0 0 1 1.31-.8c-.66 1.9-1.11 3.76 1.25 5.06a3.43 3.43 0 0 1-2.44-.07c-.71-.29-1.09-.13-1.35.61a14 14 0 0 1-.9 1.8l-.54.16c.34-1.54 0-2.39-.78-2.85-1.49 5 1.8 12.33 6.08 18.09a14.65 14.65 0 0 1 6-16.64 14.15 14.15 0 0 1 9.27-2.31c.46.65 1.07.33 1.64.24.21.38.51.29.83.18l.55.16c0 .47.31.14.48.16l.17.06c.06.29.25.26.46.19.07.45.36.35.65.25l.16.08c.16.62.65.59 1.13.58a2.2 2.2 0 0 1 .73.45l.19.14.15.09.17.12.15.11.23.18c.05.3.09.63.55.45l.14.12a.24.24 0 0 0 .22.21.72.72 0 0 1 .36.33c0 .12.09.21.22.22l.2.2.14.15a.08.08 0 0 1 .06.08l.14.15a.14.14 0 0 1 .07.1l.14.13a.1.1 0 0 1 .06.09c.08.34.14.7.59.73a14.29 14.29 0 0 1 2.06 13.29l-.08.19-.09.28-.07.18-.06.16c-.27.14-.44.33-.29.66l-.15.32c-.18 0-.24.11-.25.23a55 55 0 0 0 7.68-6.14c.35-.16 9.39-8.42 12.06-12 3.94-5.33 4.94-13.9.62-19.21m-37.27 12.89c-.36-.15-.54-.07-.67.3a8 8 0 0 1-.45.9l-.28.08c.29-1.27-.37-1.61-1.35-1.65 0 0-.05-.06-.09-.1a1.26 1.26 0 0 1 .89-.48c.34-.06.45-.21.33-.53a.45.45 0 0 1-.05-.19c0-.22-.16-.52.08-.65s.43.12.56.26c.36.43.64.36 1 0a.94.94 0 0 1 .66-.4c-.33 1-.56 1.88.62 2.53a1.7 1.7 0 0 1-1.25-.07m11.06 1.89c-.36-.15-.54-.07-.67.3a8 8 0 0 1-.45.9l-.28.08c.29-1.27-.37-1.61-1.35-1.65 0 0-.05-.06-.09-.1a1.23 1.23 0 0 1 .89-.48c.34-.06.45-.21.33-.53a.45.45 0 0 1-.05-.19c0-.22-.16-.52.08-.65s.43.12.56.26c.36.43.64.36 1 0a.94.94 0 0 1 .66-.4c-.33 1-.56 1.88.62 2.53a1.7 1.7 0 0 1-1.25-.07" class="cls-4"/><path d="M435.09 512.91a10.2 10.2 0 0 0-4 1.86 7.6 7.6 0 0 1 2.83 1.17c2 1.51 2.95 4.7 3.11 5.24s1.44 2.83 1.58 3.14a8 8 0 0 0 1.28 1.41c.19.16.91 0 1.08-.17a10.3 10.3 0 0 0 1.56-2 9.1 9.1 0 0 0 .38-5.8 6.4 6.4 0 0 0-1.89-2.88 27 27 0 0 0-3.64-1.73 5.9 5.9 0 0 0-2.29-.24m1.86 2.5c-.34-.15-.57-.51-1-.13a.83.83 0 0 0 .17-1 .7.7 0 0 0 .91.15c-.12.34-.45.57-.03.98Zm4.57 2.7c-.47.87-.45 1.58.48 2.14a1.44 1.44 0 0 0-2.15.48 1.55 1.55 0 0 1 1.67-2.62" class="cls-4"/><path d="M443.15 522.45a7.66 7.66 0 0 1-1.94 3.11 1.07 1.07 0 0 1-1.62.08 5.8 5.8 0 0 1-1.55-2.08c-.29-.56-.54-1.13-.8-1.7l-.11-.1v.13c-.38 0-.54-.28-.81-.31a11.1 11.1 0 0 0-3.38-.89 4.76 4.76 0 0 1-2.93-1.58 2.6 2.6 0 0 1 .58-3.82l.31-.12c-.16 0-.15-.09-.1-.34a7.9 7.9 0 0 1 3.22-1.83c-.6.07-1.23.19-1.87.33a7.55 7.55 0 0 0-3.44 3.85 7.66 7.66 0 0 0 .58 7.12 1.85 1.85 0 0 1 0 2.16c-.3.46-.59.93-.9 1.38-.13.2-.19.34.1.45a10.5 10.5 0 0 1 3.38 2.21c.33-.52.68-1 1-1.5a2 2 0 0 1 2.15-1 7.87 7.87 0 0 0 8.33-4.81 8 8 0 0 0-.65-7.33l-1.08-.64a7.45 7.45 0 0 1 1.53 7.23m-14 5.81-.13-.09a7.6 7.6 0 0 1 .91-1.4l.13.08Zm1.35-2.85c-.65-1.68-1.73-3.12-1.69-4.94 0-.21-.08-.43.08-.66l.1.05a9 9 0 0 0 1.4 4.58 1.1 1.1 0 0 1 .08.97Zm2.39.58a3 3 0 0 1 1.61 1.69c-.5-.6-1.12-1.11-1.64-1.68Z" class="cls-4"/><path d="M434.1 516.51a3.69 3.69 0 0 0-3.37-1.07c-.84.34-1.24 2-.94 2.92a4.17 4.17 0 0 0 2.25 1.92 17.8 17.8 0 0 1 4.91 1.44c-.04-.12-1.68-4.21-2.85-5.21" class="cls-4"/><path d="M433.16 515.61a3 3 0 0 0-2.22-.44h.22a4.33 4.33 0 0 1 3.45 1.74 15 15 0 0 1 2.11 4 2.4 2.4 0 0 0 .41.84 22.5 22.5 0 0 0-1.82-4 5.6 5.6 0 0 0-2.15-2.14M407.59 539.64c-.06-.1-.08-.28-.3-.27s-.15.12-.15.24a1 1 0 0 1-.45.87c-.32.24-.21.39.1.41a.92.92 0 0 1 .79.46c.06.1.14.19.27.17s.15-.19.15-.33c0-.47.64-.69.6-1s-.78-.12-1.01-.55M417.34 536.35a.08.08 0 0 1 0-.07l-.16-.16-.18-.12-.54-.28-.12-.15-.05.11h-.5l-.56.17c-.23-.2-.28-.08-.27.15a1.73 1.73 0 0 0 1.71 3 1.79 1.79 0 0 0 .87-2.31c-.02-.17-.05-.29-.2-.34" class="cls-4"/><path d="m424.74 556.44.09-.3c.43-.22.28-.57.19-.91a.23.23 0 0 0 .06-.3.2.2 0 0 1 0-.13v-.2a13.4 13.4 0 0 0-.55-5.34 12.4 12.4 0 0 0-3.34-5.25 3.2 3.2 0 0 0-1-.6c-.07-.19-.05-.42-.3-.5v-.28a.45.45 0 0 0 0-.46c-.09-.56-.19-1.13-.27-1.69-.06-.4-.19-.53-.56-.24s-1 .72-1.49 1.08a.8.8 0 0 1-1.35-.58.72.72 0 0 0-.86-.68.57.57 0 0 0-.61.6c0 .15-.05.36.18.37s.2-.14.19-.29.17-.3.35-.31.37.19.37.4a5 5 0 0 1-.32 1.67c-.13.38-.39.18-.6 0a15.5 15.5 0 0 0-2.4-1.46 1.84 1.84 0 0 0-1.25-.26l-.08.07c-.14.06-.19.3-.41.19v-.76c.42.08.51-.34.77-.5l.13.27c.1.45.4.3.67.2.11 0 .23.13.32 0s0-.24-.1-.34-.61-.13-.61-.54h.14c.35 0 1 .26 1 0 0-.44-.62-.21-.95-.36-.05-.43.22-.51.56-.49a1 1 0 0 0 .66-.14c.25-.18.44-.43-.09-.51a.5.5 0 0 0-.11 0l-.53.14c-.11-.18-.47-.23-.3-.56s.43-.22.31-.52l-.75-.66c-.07-.17-.19-.25-.36-.13a.34.34 0 0 0-.1.46l-.12.13-.17.06h-.07l-.12.18-.08.28-.06.22-.19.57-.07.14-.23.66a.33.33 0 0 1-.33-.08c0-.39.09-.77.14-1.16v-.24c-.08-.26-.07-.56-.52-.7.31 1-.18 1.85-.21 2.77a1.94 1.94 0 0 0 .86 1.7c.14.09.41.11.36.34a.59.59 0 0 1-.44.39 2.1 2.1 0 0 1-1 .13 4.82 4.82 0 0 0-3.93 1.4 12.18 12.18 0 0 0-4.5 11.39 2 2 0 0 1 0 .21c3.21 4 6.73 6.9 9.12 7.39 2.06.43 7.07-1.23 7.66-1.26 2.55-1.4 5.06-2.85 7.49-4.42a.9.9 0 0 0-.29-.26" class="cls-4"/><path d="M424.99 558.13v.01zM426.6 555.55l.15-.32c-.15-.33 0-.52.29-.66l.06-.16.07-.18.09-.28.08-.19a14.29 14.29 0 0 0-2.06-13.29c-.45 0-.51-.39-.59-.73a.1.1 0 0 0-.06-.09l-.14-.13a.14.14 0 0 0-.07-.1l-.14-.15a.08.08 0 0 0-.06-.08l-.14-.15-.2-.2c-.13 0-.19-.1-.22-.22a.72.72 0 0 0-.36-.33.24.24 0 0 1-.22-.21l-.14-.12c-.46.18-.5-.15-.55-.45l-.23-.18-.15-.11-.17-.12-.15-.09-.19-.14a2.2 2.2 0 0 0-.73-.45c-.48 0-1 0-1.13-.58l-.16-.08c-.29.1-.58.2-.65-.25-.21.07-.4.1-.46-.19l-.17-.06c-.17 0-.46.31-.48-.16l-.55-.16c-.32.11-.62.2-.83-.18-.57.09-1.18.41-1.64-.24a14.15 14.15 0 0 0-9.27 2.31 14.65 14.65 0 0 0-6 16.64c.4.54.8 1 1.2 1.55a2 2 0 0 0 0-.21 12.18 12.18 0 0 1 4.5-11.39 4.82 4.82 0 0 1 3.93-1.4 2.1 2.1 0 0 0 1-.13.59.59 0 0 0 .44-.39c.05-.23-.22-.25-.36-.34a1.94 1.94 0 0 1-.86-1.7c0-.92.52-1.78.21-2.77.45.14.44.44.52.7v.24c-.05.39-.09.77-.14 1.16a.33.33 0 0 0 .33.08l.23-.66.07-.14.19-.57.06-.22.08-.28.12-.18h.07l.17-.06.12-.13a.34.34 0 0 1 .1-.46c.17-.12.29 0 .36.13l.75.66c.12.3-.22.34-.31.52s.19.38.3.56l.53-.14a.5.5 0 0 1 .11 0c.53.08.34.33.09.51a1 1 0 0 1-.66.14c-.34 0-.61.06-.56.49.33.15.95-.08.95.36 0 .25-.62 0-1 0h-.14c0 .41.42.36.61.54s.22.2.1.34-.21 0-.32 0c-.27.1-.57.25-.67-.2l-.13-.27c-.26.16-.35.58-.77.5v.76c.22.11.27-.13.41-.19l.08-.07a1.84 1.84 0 0 1 1.25.26 15.5 15.5 0 0 1 2.4 1.46c.21.14.47.34.6 0a5 5 0 0 0 .32-1.67c0-.21-.09-.42-.37-.4s-.37.05-.35.31 0 .31-.19.29-.18-.22-.18-.37a.57.57 0 0 1 .61-.6.72.72 0 0 1 .86.68.8.8 0 0 0 1.35.58c.5-.36 1-.7 1.49-1.08s.5-.16.56.24c.08.56.18 1.13.27 1.69a.45.45 0 0 1 0 .46v.28c.25.08.23.31.3.5a3.2 3.2 0 0 1 1 .6 12.4 12.4 0 0 1 3.34 5.25 13.4 13.4 0 0 1 .55 5.34v.2a.2.2 0 0 0 0 .13.23.23 0 0 1-.06.3c.09.34.24.69-.19.91l-.09.3a.9.9 0 0 1 .17.29l1.44-1c.14-.1.2-.19.38-.21M408 541.19c0 .14 0 .29-.15.33s-.21-.07-.27-.17a.92.92 0 0 0-.79-.46c-.31 0-.42-.17-.1-.41a1 1 0 0 0 .45-.87c0-.12 0-.22.15-.24s.24.17.3.27c.23.43 1 .21 1 .58s-.59.5-.59.97m8.66-2.22a1.73 1.73 0 0 1-1.71-3c0-.23 0-.35.27-.15l.56-.17h.5l.05-.11.12.15.54.28.14.11.16.16a.08.08 0 0 0 0 .07c.15 0 .18.17.19.31a1.79 1.79 0 0 1-.82 2.38ZM422.92 537.95l.01.01zM425.02 555.24v-.01z" class="cls-7"/><path d="M429 524.14a2 2 0 0 1-.09 2.56c-.18.22-.3.48-.47.71a2.8 2.8 0 0 1-.76.81c-.33.23-.84.68-.55 1.2a.76.76 0 0 1-.08 1c-.2.28-.37.59-.58.86a.48.48 0 0 0 .07.74 8 8 0 0 0 2.7 1.73.39.39 0 0 0 .48-.06 7.8 7.8 0 0 0-1.47-1.39 4.4 4.4 0 0 1 1.62 1.24l.39-.6c.12-.19.24-.38.37-.56s.17-.27.42-.24a1.11 1.11 0 0 0 1.12-1.15.76.76 0 0 1 .15-.6 12 12 0 0 0 .62-1 2 2 0 0 1 2.3-1.13 8.12 8.12 0 0 0 7.91-12.12l-.42-.26a8 8 0 0 1 .65 7.33A7.87 7.87 0 0 1 435 528a2 2 0 0 0-2.15 1c-.29.5-.64 1-1 1.5a10.5 10.5 0 0 0-3.38-2.21c-.29-.11-.23-.25-.1-.45.31-.45.6-.92.9-1.38a1.85 1.85 0 0 0 0-2.16 7.66 7.66 0 0 1-.58-7.12 7.55 7.55 0 0 1 3.44-3.85l-.79.18a7.3 7.3 0 0 0-1 .83 8 8 0 0 0-1.34 9.8m-1.93 7.39a2.9 2.9 0 0 1 .86-1.33 3 3 0 0 1-.88 1.33Zm3.9.22a4.77 4.77 0 0 0-3.36-2.19c-.2 0-.33-.12-.33-.27s.23-.13.32-.1a8.65 8.65 0 0 1 3.94 2.67c-.32.14-.45.14-.54-.11Zm-2.55-3.27a10.2 10.2 0 0 1 3.19 2.06c.39.37.46.69 0 1a10 10 0 0 0-4.1-2.65c.1-.5.37-.63.89-.41Z" class="cls-6"/><path d="M427.49 528.92a10 10 0 0 1 4.1 2.65c.46-.34.39-.66 0-1a10.2 10.2 0 0 0-3.19-2.06c-.52-.25-.79-.12-.91.41" class="cls-6"/><path d="M427.58 529.19c-.09 0-.32-.14-.32.1s.13.23.33.27a4.77 4.77 0 0 1 3.36 2.19c.14.2.27.2.57.11a8.65 8.65 0 0 0-3.94-2.67M429 519.86l-.1-.05c-.16.23-.07.45-.08.66 0 1.82 1 3.26 1.69 4.94a1.1 1.1 0 0 0-.11-1 9 9 0 0 1-1.4-4.55M429 528.17l.13.09.91-1.41-.13-.08a7.6 7.6 0 0 0-.91 1.4M432.86 526c.52.58 1.11 1.09 1.61 1.69a3 3 0 0 0-1.61-1.69M434.61 516.92a4.33 4.33 0 0 0-3.45-1.74h-.22l-.31.12a2.6 2.6 0 0 0-.58 3.82 4.76 4.76 0 0 0 2.93 1.58 11.1 11.1 0 0 1 3.38.89c.27 0 .43.35.81.31v-.13a2.4 2.4 0 0 1-.41-.84 15 15 0 0 0-2.15-4.01m-2.61 3.36a4.17 4.17 0 0 1-2.25-1.92c-.3-.93.1-2.58.94-2.92a3.69 3.69 0 0 1 3.37 1.07c1.17 1 2.81 5.09 2.85 5.21a17.8 17.8 0 0 0-4.91-1.44" class="cls-6"/><path d="M430.94 515.17a3 3 0 0 1 2.22.44 5.6 5.6 0 0 1 2.15 2.17 22.5 22.5 0 0 1 1.82 4l.11.1c.26.57.51 1.14.8 1.7a5.8 5.8 0 0 0 1.55 2.08 1.07 1.07 0 0 0 1.62-.08 7.66 7.66 0 0 0 1.94-3.11 7.45 7.45 0 0 0-1.52-7.23l-.58-.33a6.4 6.4 0 0 1 1.89 2.88 9.1 9.1 0 0 1-.38 5.8 10.3 10.3 0 0 1-1.56 2c-.17.17-.89.33-1.08.17a8 8 0 0 1-1.28-1.41c-.14-.31-1.42-2.61-1.58-3.14s-1.15-3.73-3.11-5.24a7.6 7.6 0 0 0-2.83-1.17 10.2 10.2 0 0 1 4-1.86 9 9 0 0 0-1 .09 7.9 7.9 0 0 0-3.22 1.83c-.11.22-.12.29.04.31" class="cls-6"/><path d="M436.15 514.32a.83.83 0 0 1-.17 1c.4-.38.63 0 1 .13-.37-.39 0-.64.11-.94a.7.7 0 0 1-.94-.19M439.85 520.73a1.44 1.44 0 0 1 2.15-.48c-.93-.56-.95-1.27-.48-2.14a1.55 1.55 0 0 0-1.67 2.62M394.14 538.23l.54-.16a14 14 0 0 0 .9-1.8c.26-.74.64-.9 1.35-.61a3.43 3.43 0 0 0 2.44.07c-2.36-1.3-1.91-3.16-1.25-5.06a1.84 1.84 0 0 0-1.31.8c-.47.57-.89.8-1.36.58a4.6 4.6 0 0 0-2 3c0 .11-.07.24-.1.35.77.44 1.13 1.29.79 2.83M421.07 530.67a.94.94 0 0 0-.66.4c-.33.4-.61.47-1 0-.13-.14-.36-.37-.56-.26s-.07.43-.08.65a.45.45 0 0 0 .05.19c.12.32 0 .47-.33.53a1.23 1.23 0 0 0-.89.48s.06.1.09.1c1 0 1.64.38 1.35 1.65l.28-.08a8 8 0 0 0 .45-.9c.13-.37.31-.45.67-.3a1.7 1.7 0 0 0 1.22 0c-1.15-.58-.92-1.51-.59-2.46M410 528.78a.94.94 0 0 0-.66.4c-.33.4-.61.47-1 0-.13-.14-.36-.37-.56-.26s-.07.43-.08.65a.45.45 0 0 0 .05.19c.12.32 0 .47-.33.53a1.26 1.26 0 0 0-.89.48s.06.1.09.1c1 0 1.64.38 1.35 1.65l.28-.08a8 8 0 0 0 .45-.9c.13-.37.31-.45.67-.3a1.7 1.7 0 0 0 1.22 0c-1.14-.58-.91-1.51-.59-2.46" class="cls-6"/><path d="M110.09 239c-.08.2-.17.39-.25.57a2.7 2.7 0 0 0 .25-.57M117.98 213.52l.01.01v-.01z" class="cls-5"/><path d="m102 241.53-2-1.41c-1 1.75-1.89 3.4-2.75 5.08-.56 1.07-1.18 1.42-2.19.52a10 10 0 0 0-1.37-.94c-4-2.59-4-2.59-1.88-6.92l.89-1.75-1.19-.66a35.5 35.5 0 0 0-2.51 4.87s-3.25 14.44-3.23 21.82c2.19-.55 4.37 2.15 6.56 0a20.3 20.3 0 0 0 7.11-4.82c4.09-3.88 6.28-8.86 8.58-13.78-1.46.76-3.17.03-6.02-2.01m-11.38 20.68" class="cls-4"/><path d="M93 237.87c-.84 1.3-2.07 2.87-1.68 4.29.24.91 2.25 1.25 3.26 2.09 1.39 1.14 2 .82 2.68-.71 2.15-4.55 2.17-4.43 6.69-2s3.44 2.29 5.85-1.78a.6.6 0 0 0 .06-.11c.08-.18.17-.37.25-.57.27-.85-.17-1.32-1.18-1.79-1.65-.77-3.18-1.78-4.79-2.63-1.05-.55-1.22-1.13-.62-2.23 1.83-3.33 3.47-6.76 5.3-10.1 2.34-4.29 2.36-4.22-1.91-6.34-1.12-.56-1.63-.44-2.19.67q-2.94 5.7-6 11.32c-1.56 2.84-1.83 3.24-4 2.12-1 1.64-1.87 3.14-2.64 4.46 1.57.73 1.98 1.61.92 3.31" class="cls-4"/><path d="M129.24 184.08c0-.58-.07-1.16-.1-1.73-1.49 0-2.51 1-3.71 1.69-3.52 2.13-20.7 29.31-30.17 45.12 1.41.65 1.66.1 2.85-2.24 1.87-3.67 3.86-7.27 5.75-10.93.72-1.4 1.58-1.7 3.06-1 6.93 3 5.68 1.89 2.94 7.55-1.62 3.34-3.49 6.57-5.34 9.8-.57 1-.5 1.48.57 2 1.79.84 3.5 1.85 5.28 2.7a3 3 0 0 1 .48.29c6.08-14.6 18.35-51.6 18.39-53.18ZM118 213.52" class="cls-4"/><path d="M109.3 240.77c.17-.35.35-.74.54-1.16a.6.6 0 0 1-.06.11c-2.41 4.07-1.39 4.14-5.85 1.78s-4.54-2.51-6.69 2c-.73 1.53-1.29 1.85-2.68.71-1-.84-3-1.18-3.26-2.09-.39-1.42.84-3 1.68-4.29 1.08-1.7.67-2.58-.9-3.35l-.54.93 1.19.66-.89 1.75c-2.12 4.33-2.12 4.33 1.88 6.92a10 10 0 0 1 1.37.94c1 .9 1.63.55 2.19-.52.86-1.68 1.79-3.33 2.75-5.08l1.94 1.41c2.88 2 4.59 2.77 6 2l1.11-2.32a5 5 0 0 0 .22-.4M105.09 234.26c-1.07-.5-1.14-1-.57-2 1.85-3.23 3.72-6.46 5.34-9.8 2.74-5.66 4-4.5-2.94-7.55-1.48-.65-2.34-.35-3.06 1-1.89 3.66-3.88 7.26-5.75 10.93-1.19 2.34-1.44 2.89-2.85 2.24-.19.31-.37.61-.54.91 2.13 1.12 2.4.72 4-2.12q3.09-5.61 6-11.32c.56-1.11 1.07-1.23 2.19-.67 4.27 2.12 4.25 2.05 1.91 6.34-1.83 3.34-3.47 6.77-5.3 10.1-.6 1.1-.43 1.68.62 2.23 1.61.85 3.14 1.86 4.79 2.63 1 .47 1.45.94 1.18 1.79.24-.55.5-1.15.76-1.79a3 3 0 0 0-.48-.29c-1.8-.78-3.51-1.79-5.3-2.63" class="cls-8"/><path d="m437 388.26-.11.07v.11a2 2 0 0 1 .11-.18M462.15 364.34l-.54.6c6.1-1.86 15-9.06 16.75-14.07-3.31 1.08-6.83-.15-8-3.67a21.5 21.5 0 0 1-2.53 8c-.57 1.29-5.18 9.14-5.68 9.14M470.36 340.85h-.44c.08.35.16.7.22 1.05.07-.34.13-.68.22-1.05M423.59 337.37c-.08.87-.12 1.72-.14 2.57l1.37-1.12c-.43-.45-.82-.95-1.23-1.45" class="cls-5"/><path d="M440.84 366.43a30.3 30.3 0 0 0 6.7-3.7c-2 .06-3.53.06-5.07.15-2.72.16-2.79.29-2.43 3 .08.6.19.79.8.55M426.36 380.31l3.9-1a1.74 1.74 0 0 0 1-.83c2.21-3 4.31-6.09 6.72-8.91a5.84 5.84 0 0 0 1.33-5.7c-4.26 4.88-8.16 9.95-12.13 15-.13.6-.88.85-.84 1.54ZM427.23 380.6c-.43.35-1 .21-1.46.34q.47 2.63 1 5.24c.14.87.29 1.75.48 2.89l3.62-9.53a15.5 15.5 0 0 1-3.64 1.06M442.3 380.05c1.8-2.73 3.69-5.4 5.72-8.37-1.25.34-2.43-.56-3.16.68-2 3.43-4.72 6.41-6.88 9.75a4.84 4.84 0 0 0-.87 2.44l-.19 3.78.11-.07c1.85-2.89 3.52-5.58 5.27-8.21M433.37 335.27c.32-1 .55-.78 1.13-.47 4.08 2.15 6.79.84 8.77-4.28.33-.87.51-.89 1.11-.39 3.36 2.78 6.51 2.3 9.74-1.55.93-1.1 1.3-1.44 1.83.26a6 6 0 0 0 7.83 4.28c.86-.23 1.41-.53 1 1-1.07 3.89 1.18 6.64 4.69 5.83h.21a19.38 19.38 0 0 0-7.89-10.45l-2.44-.93a16.48 16.48 0 0 0-15.75-.95 22.4 22.4 0 0 0-6.57 2.05c-1.91 1-6.6 4.66-11.52 8.64 2.82 2.76 6.42 1.51 7.86-3.04" class="cls-4"/><path d="M458.72 364.37a41 41 0 0 0 1.52-8.16c.18-5.06-2-8.85-5.76-9.68 0 1 0 1.86-.06 2.78a1.76 1.76 0 0 1-.79 1.58c-.63.28-.94-.34-1.22-.86l-.09-.17c-1.43-2.46-1.43-2.44-3.75-1.06-.47.29-1 .92-1.49.56s0-1.25 0-1.89a18 18 0 0 1 .38-2c-7.29-.59-11 3.37-14.69 15.57a13.44 13.44 0 0 1-8.14-8.49 33.4 33.4 0 0 1-1.87-12c-6.07 5-11.81 9.87-12.49 10.56s-5.38 4.83-5.36 7.79a3.5 3.5 0 0 0 .26 1 8.1 8.1 0 0 0 3.52-4.33 7.44 7.44 0 0 0 4.87 4.73c-2.33 1.06-4 2.36-4.81 5.19a8.08 8.08 0 0 0-3-4.29c3.44 7.41 16.79 28.91 17.59 29.72 2.25 2.24 7.11.94 11.31-1.17-2 .13-4.09.31-6.12.57-1.21.16-1.87-.11-1.9-1.42 0-.53-.11-1.07-.17-1.6a2.7 2.7 0 0 1-.13-.6c-.36-1.75-.71-3.51-1.09-5.25-.12-.57.21-.92.5-1.3a3.57 3.57 0 0 1 1.09-1.55c3.72-5.25 7.81-10.21 12-15.08a2.58 2.58 0 0 1 2-1c1.91-.08 3.82-.25 5.73-.43 1.09-.1 1.67.3 1.74 1.43.05.74.18 1.46.27 2.19.41 3.36.31 6.43-1.95 9.42-3 3.93-5.39 8.26-8.24 12.3 3.56-2.54 7.29-6 7.55-6.61 2.59-2.16 10.47-10.17 14.66-14.69l-.35.11c-2.06.44-2.06.39-1.52-1.87m-46.82-8.91a2.37 2.37 0 0 0-1.4-1.56 2.46 2.46 0 0 0 1.38-1.49 2.29 2.29 0 0 0 1.49 1.46 2.31 2.31 0 0 0-1.47 1.59" class="cls-4"/><path d="M411.89 352.85a3 3 0 0 1-1 1.08 2.63 2.63 0 0 1 1 .95 2.64 2.64 0 0 1 1-1 2.44 2.44 0 0 1-1-1.03M431.35 379.87c-.94 3.17-2.34 6.11-3.17 9.36l8.45-5.76a60 60 0 0 0-5.28-3.6M463.74 334.18c-4.09.65-7.09-1-8.76-5.25-.49.51-.84.91-1.22 1.28-3.05 2.93-5.86 3.42-9.18 1.38-.87-.53-.85.13-1.09.63-1.89 3.92-4.91 5.4-8.43 3.95-.84-.34-.92-.08-1.26.67-1.57 3.46-4.61 4.65-7.55 3.1a6 6 0 0 1-1.43-1.12l-1.37 1.12c-.23 9.67 3.32 17.81 8.94 19.83a21.4 21.4 0 0 1 4.46-10.26 2 2 0 0 0 .23-2.91 19.8 19.8 0 0 1-2.85-9.24c3 2.57 4.14 5.82 4.44 9.91a10.8 10.8 0 0 1 4.76-2.55c1.55-.29 1.76-1 1.48-2.59a34.7 34.7 0 0 1-.65-9.41 12.76 12.76 0 0 1 1.94 9.75c-.19 1.19-.29 2 1.07 2 1 0 1.07.74.81 1.72a3.13 3.13 0 0 0-.18 2.1 8 8 0 0 0 1.62-1c1.38-1.41 2.05-.7 2.68.74.28.65.4 1.6 1.29 1.72a6.06 6.06 0 0 0 .37-2.67c.06-1.4.61-1.59 1.66-1.34.73.17 1.33.94 2.19.53.88-.66 1-1.75 1.24-2.73a26.6 26.6 0 0 1 3.1-7.36 16.9 16.9 0 0 1-2.79 7.84 6 6 0 0 0-1.15 2.38c0 .26 0 .63.12.76 2.8 2.76 2.77 6.6 2.56 10.52-.15 2.64-1 5.14-1.56 7.72a9.7 9.7 0 0 0 2.38-.44l.54-.6c.5 0 5.11-7.85 5.64-9.12a21.5 21.5 0 0 0 2.53-8 10.4 10.4 0 0 1-.18-5.29c-.06-.35-.14-.7-.22-1.05-5.09.1-6.56-1.58-6.18-6.72m-1.51 15.75c-.36.2-.84.6-1.13.09s.24-.86.54-1.16a57.4 57.4 0 0 1 7.86-6.86 15.4 15.4 0 0 1-7.27 7.93M408.83 363.5a8.34 8.34 0 0 1 3.11-3.26 8.06 8.06 0 0 1-3.18-3.35 10 10 0 0 1-3.29 3.51c1.62.6 2.37 1.94 3.36 3.1M433.42 389.16c3-.25 3-.24 3.07-3.17 0-.56.08-1.12.14-1.9a71 71 0 0 1-8.13 5.53c1.86-.18 3.39-.33 4.92-.46M444.32 370.65A32 32 0 0 0 441 368c-.52-.33-.88-.44-1.33.15q-3.93 5.22-7.93 10.38c-.41.54-.32.75.23 1.09 1.28.79 2.5 1.68 3.75 2.52.35.36.62.83 1.17 1l.71-1.6c2.37-3.32 5.07-6.4 7.11-10a.64.64 0 0 0-.39-.89M448.4 370.46c-.21-2.06-.38-4.11-.6-6.55l-.72 1.62a6 6 0 0 0-.44.76 8.6 8.6 0 0 0 .17-1.35l.26-1.18a39 39 0 0 1-6.35 3.31 16.1 16.1 0 0 1 3.91 3.24c.34.36.56.37.71.25a.67.67 0 0 0 .22.62h2.19c.47-.04.7-.18.65-.72" class="cls-4"/><path d="M459.23 365.38c.54-2.58 1.41-5.08 1.56-7.72.21-3.92.24-7.76-2.56-10.52-.14-.13-.08-.5-.12-.76a6 6 0 0 1 1.15-2.38 16.9 16.9 0 0 0 2.79-7.84 26.6 26.6 0 0 0-3.1 7.36c-.28 1-.36 2.07-1.24 2.73-.86.41-1.46-.36-2.19-.53-1-.25-1.6-.06-1.66 1.34a6.06 6.06 0 0 1-.37 2.67c-.89-.12-1-1.07-1.29-1.72-.63-1.44-1.3-2.15-2.68-.74a8 8 0 0 1-1.62 1 3.13 3.13 0 0 1 .18-2.1c.26-1 .2-1.73-.81-1.72-1.36 0-1.26-.79-1.07-2a12.76 12.76 0 0 0-1.94-9.75 34.7 34.7 0 0 0 .65 9.41c.28 1.61.07 2.3-1.48 2.59a10.8 10.8 0 0 0-4.76 2.55c-.3-4.09-1.47-7.34-4.44-9.91a19.8 19.8 0 0 0 2.85 9.24 2 2 0 0 1-.23 2.91 21.4 21.4 0 0 0-4.46 10.26c-5.62-2-9.17-10.16-8.94-19.83l-.66.54a33.4 33.4 0 0 0 1.87 12 13.44 13.44 0 0 0 8.14 8.54c3.67-12.2 7.4-16.16 14.69-15.57a18 18 0 0 0-.38 2c-.07.64-.64 1.43 0 1.89s1-.27 1.49-.56c2.32-1.38 2.32-1.4 3.75 1.06l.09.17c.28.52.59 1.14 1.22.86a1.76 1.76 0 0 0 .79-1.58c.05-.92 0-1.83.06-2.78 3.77.83 5.94 4.62 5.76 9.68a41 41 0 0 1-1.52 8.16c-.54 2.26-.54 2.31 1.52 1.78l.35-.11 1-1.1a9.7 9.7 0 0 1-2.39.48" class="cls-6"/><path d="M426.25 339.94c2.94 1.55 6 .36 7.55-3.1.34-.75.42-1 1.26-.67 3.52 1.45 6.54 0 8.43-3.95.24-.5.22-1.16 1.09-.63 3.32 2 6.13 1.55 9.18-1.38.38-.37.73-.77 1.22-1.28 1.67 4.28 4.67 5.9 8.76 5.25-.38 5.14 1.09 6.77 6.18 6.68-.08-.32-.16-.64-.25-.95h-.21c-3.51.81-5.76-1.94-4.69-5.83.42-1.54-.13-1.24-1-1a6 6 0 0 1-7.83-4.28c-.53-1.7-.9-1.36-1.83-.26-3.23 3.85-6.38 4.33-9.74 1.55-.6-.5-.78-.48-1.11.39-2 5.12-4.69 6.43-8.77 4.28-.58-.31-.81-.51-1.13.47-1.44 4.55-5 5.8-7.87 3l-.68.55a6 6 0 0 0 1.44 1.16M470.32 347.2a18.7 18.7 0 0 0-.18-5.29 10.4 10.4 0 0 0 .18 5.29M461.1 350c.29.51.77.11 1.13-.09a15.4 15.4 0 0 0 7.27-7.91 57.4 57.4 0 0 0-7.86 6.88c-.3.28-.84.61-.54 1.12M448.57 365.62c-.09-.73-.22-1.45-.27-2.19-.07-1.13-.65-1.53-1.74-1.43-1.91.18-3.82.35-5.73.43a2.58 2.58 0 0 0-2 1c-4.2 4.87-8.29 9.83-12 15.08a3.57 3.57 0 0 0-1.09 1.55c-.29.38-.62.73-.5 1.3.38 1.74.73 3.5 1.09 5.25a2.7 2.7 0 0 0 .13.6c.06.53.15 1.07.17 1.6 0 1.31.69 1.58 1.9 1.42 2-.26 4.08-.44 6.12-.57l.69-.36c.5-.27 1-.59 1.59-.95l.19-3.78a4.84 4.84 0 0 1 .87-2.44c2.16-3.34 4.84-6.32 6.88-9.75.73-1.24 1.91-.34 3.16-.68-2 3-3.92 5.64-5.72 8.37s-3.42 5.32-5.27 8.21l1.35-.92c2.85-4 5.28-8.37 8.24-12.3 2.25-3.01 2.37-6.06 1.94-9.44m-6.1-2.74c1.54-.09 3.09-.09 5.07-.15a30.3 30.3 0 0 1-6.7 3.7c-.61.24-.72.05-.8-.53-.36-2.73-.29-2.9 2.43-3.02m-15.33 15.91c4-5 7.87-10.08 12.13-15a5.84 5.84 0 0 1-1.33 5.7c-2.41 2.82-4.51 5.91-6.72 8.91a1.74 1.74 0 0 1-1 .83l-3.9 1c-.06-.59.68-.84.82-1.44m.07 10.34c-.19-1.14-.34-2-.48-2.89q-.48-2.61-1-5.24c.48-.13 1 0 1.46-.34a15.5 15.5 0 0 0 3.6-1Zm4.14-9.26a60 60 0 0 1 5.28 3.6l-8.45 5.76c.82-3.23 2.23-6.23 3.17-9.36m5.14 6.12c-.09 2.93-.08 2.92-3.07 3.17-1.53.13-3.06.28-4.92.46a71 71 0 0 0 8.13-5.53c-.06.78-.12 1.34-.14 1.91Zm8.24-14.47c-2 3.56-4.74 6.64-7.11 10l-.71 1.6c-.55-.14-.82-.61-1.17-1-1.25-.84-2.47-1.73-3.75-2.52-.55-.34-.64-.55-.23-1.09q4-5.16 7.93-10.38c.45-.59.81-.48 1.33-.15a32 32 0 0 1 3.3 2.68.64.64 0 0 1 .41.86m3-.38h-2.19a.67.67 0 0 1-.22-.62c-.15.12-.37.11-.71-.25a16.1 16.1 0 0 0-3.91-3.24 39 39 0 0 0 6.35-3.31l-.26 1.18a8.6 8.6 0 0 1-.17 1.35 6 6 0 0 1 .44-.76l.72-1.62c.22 2.44.39 4.49.6 6.55.07.58-.16.72-.63.72ZM408.78 365.38c.78-2.83 2.48-4.13 4.81-5.19a7.44 7.44 0 0 1-4.87-4.73 8.1 8.1 0 0 1-3.52 4.33c.13.36.31.79.54 1.3a8.08 8.08 0 0 1 3.04 4.29m0-8.49a8.06 8.06 0 0 0 3.18 3.35 8.34 8.34 0 0 0-3.11 3.26c-1-1.16-1.74-2.47-3.36-3.1a10 10 0 0 0 3.27-3.51ZM411.88 352.41a2.46 2.46 0 0 1-1.38 1.49 2.37 2.37 0 0 1 1.4 1.56 2.31 2.31 0 0 1 1.47-1.59 2.29 2.29 0 0 1-1.49-1.46m0 2.47a2.63 2.63 0 0 0-1-.95 3 3 0 0 0 1-1.08 2.44 2.44 0 0 0 1 1 2.64 2.64 0 0 0-.97 1.03Z" class="cls-6"/></g></svg>